<?xml version="1.0" standalone="no"?>
<!DOCTYPE svg PUBLIC "-//W3C//DTD SVG 20010904//EN"
 "http://www.w3.org/TR/2001/REC-SVG-20010904/DTD/svg10.dtd">
<svg version="1.0" xmlns="http://www.w3.org/2000/svg"
 width="469.000000pt" height="99.000000pt" viewBox="0 0 469.000000 99.000000"
 preserveAspectRatio="xMidYMid meet">
<metadata>
Created by potrace 1.16, written by Peter Selinger 2001-2019
</metadata>
<g transform="translate(0.000000,99.000000) scale(0.100000,-0.100000)"
fill="#000000" stroke="none">
<path d="M1151 940 c-81 -19 -125 -83 -118 -172 l5 -58 -34 0 c-24 0 -34 -5
-34 -15 0 -10 11 -15 35 -15 l35 0 0 -221 c0 -205 1 -220 18 -217 15 3 17 23
20 221 l2 217 130 0 130 0 -89 -134 -90 -134 38 -35 c46 -41 213 -125 256
-129 l30 -3 3 208 2 208 23 -7 c101 -30 160 -133 105 -184 -27 -25 -50 -26
-72 -1 -14 15 -15 24 -6 40 13 25 14 25 45 5 24 -15 25 -15 25 3 0 27 -19 43
-51 43 -32 0 -47 -16 -55 -58 -5 -25 -1 -36 19 -56 36 -36 80 -35 119 4 27 28
30 36 26 79 -6 56 -32 95 -86 128 l-37 23 388 0 388 0 -1 -217 c-1 -175 1
-218 12 -218 10 0 14 45 16 218 l2 217 35 0 c24 0 35 5 35 15 0 13 -82 15
-674 15 l-673 0 -7 31 c-22 112 30 173 147 172 42 -1 72 -8 113 -29 39 -20 58
-24 65 -17 16 16 -65 60 -131 73 -59 11 -61 11 -109 0z m304 -282 c2 -13 4
-102 2 -198 -2 -169 -3 -175 -22 -172 -29 4 -175 78 -207 105 l-28 23 91 132
c86 126 92 132 124 132 28 0 36 -5 40 -22z"/>
<path d="M355 884 c-66 -13 -143 -29 -172 -35 -44 -9 -53 -14 -62 -40 -14 -41
0 -73 46 -103 209 -138 302 -203 297 -208 -7 -8 58 6 154 33 39 11 76 18 81
14 5 -3 11 -1 13 5 1 5 17 11 33 14 17 2 37 6 45 8 8 3 42 13 74 23 40 11 55
20 45 25 -7 5 -17 6 -21 4 -4 -3 -8 0 -8 7 0 8 -6 7 -17 -4 -10 -8 -92 -34
-183 -57 -91 -24 -170 -44 -176 -47 -16 -6 -27 44 -14 67 11 21 12 21 243 75
86 20 157 41 157 46 0 10 -387 200 -404 198 -6 -1 -65 -12 -131 -25z"/>
<path d="M2750 665 l0 -65 -37 42 c-48 52 -113 82 -159 74 -65 -13 -133 -98
-134 -168 l0 -27 46 16 c80 27 120 -14 96 -101 -18 -67 5 -78 33 -16 20 43
105 130 129 130 22 0 26 -23 26 -171 0 -117 2 -139 15 -139 13 0 15 31 15 220
l0 220 136 0 c105 0 134 -3 128 -12 -4 -7 -43 -66 -86 -130 -43 -65 -78 -122
-78 -127 0 -14 94 -83 150 -111 44 -22 146 -60 162 -60 4 0 8 99 8 220 l0 220
40 0 c29 0 40 4 40 15 0 13 -34 15 -244 15 -153 0 -247 4 -251 10 -3 6 -13 10
-21 10 -11 0 -14 -15 -14 -65z m-98 -10 c51 -34 67 -65 43 -80 -10 -5 -35 -25
-55 -42 l-37 -33 -11 25 c-17 36 -56 58 -97 53 -19 -2 -35 0 -35 5 0 16 41 76
58 87 32 18 95 11 134 -15z m518 -85 l0 -110 -27 12 c-27 12 -124 66 -132 74
-2 2 15 33 39 69 40 62 44 65 81 65 l39 0 0 -110z m-152 -69 c15 -10 55 -33
90 -50 l62 -31 0 -69 0 -70 -29 9 c-57 16 -221 109 -221 126 0 6 64 104 68
104 2 0 16 -8 30 -19z"/>
<path d="M4398 506 l-3 -224 -51 19 c-58 22 -176 91 -181 106 -2 6 26 43 63
83 65 71 66 73 61 118 -10 87 -98 132 -152 77 -29 -28 -32 -61 -9 -93 27 -39
89 -18 82 28 -3 23 -4 23 -21 6 -19 -20 -47 -15 -47 8 0 22 37 44 66 38 25 -4
54 -46 54 -77 0 -8 -34 -54 -76 -100 -41 -47 -72 -90 -68 -96 24 -40 232 -148
292 -152 l23 -2 -1 218 -1 217 61 0 60 0 0 -220 c0 -189 2 -220 15 -220 13 0
15 31 15 220 l0 220 40 0 c29 0 40 4 40 15 0 12 -19 15 -109 15 -63 0 -112 4
-116 10 -3 6 -13 10 -20 10 -12 0 -15 -38 -17 -224z"/>
<path d="M3463 695 c0 -12 20 -15 114 -15 62 0 113 -2 113 -5 0 -3 -35 -58
-78 -123 -43 -64 -82 -122 -85 -129 -10 -16 34 -56 113 -102 71 -42 187 -88
197 -78 3 4 7 98 7 209 l1 203 25 -3 c44 -4 104 -54 120 -100 13 -39 13 -43
-6 -69 -26 -35 -50 -40 -75 -17 -23 21 -24 37 -4 54 13 10 19 9 35 -5 25 -23
37 -13 22 20 -24 52 -102 20 -102 -43 0 -12 11 -34 25 -47 51 -51 132 -17 141
60 7 52 -18 100 -74 142 l-44 33 96 0 c79 0 96 3 96 15 0 13 -42 15 -318 15
-277 0 -319 -2 -319 -15z m347 -215 l0 -199 -41 14 c-52 19 -146 69 -181 98
l-28 22 88 132 c86 131 88 133 125 133 l37 0 0 -200z"/>
<path d="M79 643 c-5 -15 -7 -39 -3 -53 4 -14 6 -39 5 -55 -1 -19 6 -42 19
-58 l21 -27 -25 -10 c-23 -8 -26 -15 -26 -54 l0 -44 189 -131 c104 -72 195
-131 202 -131 22 0 359 142 359 151 0 5 -9 13 -20 19 -15 8 -18 7 -15 -2 4 -9
-46 -34 -155 -79 -88 -36 -162 -64 -165 -61 -8 8 -6 82 3 80 4 0 16 2 27 7 11
4 89 35 173 67 83 33 152 61 152 63 0 6 -57 35 -70 35 -5 0 -10 -11 -10 -24 0
-17 -7 -25 -22 -29 -237 -54 -360 -79 -373 -73 -11 4 -15 15 -13 38 2 27 9 34
36 42 25 7 36 5 50 -6 15 -14 29 -12 147 23 72 21 138 39 148 39 11 0 33 6 50
14 18 8 41 17 51 20 18 6 18 8 3 23 -15 16 -18 16 -29 1 -8 -9 -71 -32 -148
-52 -74 -20 -150 -40 -168 -45 -30 -9 -34 -8 -43 16 -15 41 -2 61 49 77 41 12
44 15 25 21 -13 4 -20 12 -16 18 3 6 1 7 -6 3 -11 -7 -129 50 -143 69 -4 6 -8
6 -8 2 0 -9 -183 84 -188 96 -2 4 -9 4 -15 0 -7 -4 -8 0 -4 11 4 10 3 15 -3
11 -6 -3 -10 -1 -10 4 0 21 -21 10 -31 -16z"/>
<path d="M1978 615 c-32 -18 -58 -63 -58 -98 0 -33 34 -74 68 -82 36 -7 82 9
82 30 0 12 -8 14 -40 9 -31 -5 -45 -3 -60 11 -26 24 -25 48 4 82 19 22 32 28
65 28 107 0 168 -142 99 -231 -40 -51 -132 -69 -201 -41 -43 19 -100 84 -122
140 -10 26 -24 47 -31 47 -20 0 -17 -18 10 -75 50 -109 115 -155 217 -155 77
0 123 21 157 72 52 79 33 198 -40 251 -35 26 -114 32 -150 12z"/>
</g>
</svg>
